# xmcd
#
# Track frame offsets:
#	150
#	13665
#	25905
#	35837
#	47785
#	59845
#	76795
#	89312
#	102250
#	114180
#	125307
#	135772
#	147565
#	159945
#	172750
#	186137
#	197140
#	210832
#
# Disc length: 2947 seconds
#
# Revision: 1
# Processed by: cddbd v1.5.2PL0 Copyright (c) Steve Scherf et al.
# Submitted via: audiograbber 1.83.01
#
DISCID=e60b8112
DTITLE=Various Artist - Compact Country - Disc 4
DYEAR=1900
DGENRE=Country
TTITLE0=Gene Pitney - Twenty Four Hours From Tulsa
TTITLE1=Guy Mitchell - Heartaches By The Number
TTITLE2=Jimmie Rodgers - Bimbon Bay
TTITLE3=Kris Kristofferson - Jody And The Kid
TTITLE4=Willie Nelson - Shelter Of Your Arms
TTITLE5=Col Joye - Maggie
TTITLE6=Leslie Gore - Here You Come Again
TTITLE7=Roy Orbison - In Dreams
TTITLE8=Tammy Wynette - I Don't Wanna Play House
TTITLE9=Frankie Laine - High Noon (Do Not Forsake Me)
TTITLE10=Don Gibson - Lonesome Number One
TTITLE11=Michael Jones - The Wonder Of You
TTITLE12=Patsy CLine - Crazy
TTITLE13=Guy Mitchell - My Truly, Truly Fair
TTITLE14=Lynn Anderson - Rose Garden
TTITLE15=George Jones - Ruby, Don't Take Your Love To Town
TTITLE16=Jimmie Dean - Big John
TTITLE17=Conway Twitty - Born To Sing The Blues
EXTD=
EXTT0=
EXTT1=
EXTT2=
EXTT3=
EXTT4=
EXTT5=
EXTT6=
EXTT7=
EXTT8=
EXTT9=
EXTT10=
EXTT11=
EXTT12=
EXTT13=
EXTT14=
EXTT15=
EXTT16=
EXTT17=
PLAYORDER=
